<svg xmlns="http://www.w3.org/2000/svg" width="384" height="424" viewBox="0 0 384 424"><title>Recoup symbol / blue</title><defs><filter id="shadow" x="-30%" y="-30%" width="170%" height="190%"><feDropShadow dx="0" dy="20" stdDeviation="18" flood-color="#152E37" flood-opacity=".13"/></filter><linearGradient id="matte" x1="0" y1="0" x2="1" y2="1"><stop stop-color="#FFFFFF" stop-opacity=".08"/><stop offset="1" stop-color="#132B26" stop-opacity=".02"/></linearGradient></defs><g transform="translate(38 41) scale(2.425531914893617) translate(-48 -41)"><path d="M118.106 41C112.845 41 108.581 45.2558 108.581 50.5056V88.3242C108.581 93.9241 106.846 99.3868 103.613 103.964C98.5169 111.179 90.2239 115.471 81.3785 115.471H57.525C52.2645 115.471 48 119.727 48 124.977V172.304C48 177.554 52.2645 181.81 57.525 181.81H104.894C110.155 181.81 114.419 177.554 114.419 172.304V139.968C114.419 133.432 116.445 127.056 120.218 121.714L120.885 120.77C126.833 112.348 136.512 107.339 146.836 107.339H165.475C170.736 107.339 175 103.083 175 97.833V50.5056C175 45.2558 170.736 41 165.475 41H118.106Z" fill="#007EBD"/></g></svg>